Coordinates
version=1
nRows=5
nColumns=107
inDegrees=yes

Units are S.I. units (second, meters, Newtons, ...)
If the header above contains a line with 'inDegrees', this indicates whether rotational values are in degrees (yes) or radians (no).

endheader
time	sternoclavicular_r2	sternoclavicular_r3	unrotscap_r3	unrotscap_r2	acromioclavicular_r2	acromioclavicular_r3	acromioclavicular_r1	unrothum_r1	unrothum_r3	unrothum_r2	elv_angle	shoulder_elv	shoulder1_r2	shoulder_rot	elbow_flexion	pro_sup	deviation	flexion	proximal_distal_r1	proximal_distal_r3	cmc_flexion	cmc_abduction	mp_flexion	ip_flexion	mcp2_flexion	mcp2_abduction	pm2_flexion	md2_flexion	mcp3_flexion	mcp3_abduction	pm3_flexion	md3_flexion	mcp4_flexion	mcp4_abduction	pm4_flexion	md4_flexion	mcp5_flexion	mcp5_abduction	pm5_flexion	md5_flexion	bicpt_tx	bicpt_ty	bicpt_tz	bicpt2_tx	bicpt2_ty	bicpt2_tz	ptpt_tx	ptpt_ty	ptpt_tz	FCUpt_tx	FCUpt_ty	FCUpt_tz	EDCpt_tx	EDCpt_ty	EDCpt_tz	APLpt_tx	APLpt_ty	APLpt_tz	FPLpt_tx	FPLpt_ty	FPLpt_tz	FPLpt2_tx	FPLpt2_ty	FPLpt2_tz	PEC1pt2_tx	PEC1pt2_ty	PEC1pt2_tz	PEC1pt3_tx	PEC1pt3_ty	PEC1pt3_tz	PEC2pt2_tx	PEC2pt2_ty	PEC2pt2_tz	PEC2pt3_tx	PEC2pt3_ty	PEC2pt3_tz	PEC3pt2_tx	PEC3pt2_ty	PEC3pt2_tz	PEC3pt3_tx	PEC3pt3_ty	PEC3pt3_tz	DELT2pt2a_tx	DELT2pt2a_ty	DELT2pt2a_tz	DELT2pt2_tx	DELT2pt2_ty	DELT2pt2_tz	LAT1pt2_tx	LAT1pt2_ty	LAT1pt2_tz	LAT1pt3_tx	LAT1pt3_ty	LAT1pt3_tz	LAT2pt2_tx	LAT2pt2_ty	LAT2pt2_tz	LAT2pt3_tx	LAT2pt3_ty	LAT2pt3_tz	LAT3pt2_tx	LAT3pt2_ty	LAT3pt2_tz	LAT3pt3_tx	LAT3pt3_ty	LAT3pt3_tz
      0.83333333	     -0.32511990	      0.13770545	     -0.13770545	      0.32511990	     -0.06583017	      0.53201625	      0.23913764	     -0.23913764	     -0.53201625	      0.06583017	     98.16359110	     76.97502639	     -1.71327787	    -19.78659480	     29.63463024	     45.97425393	      0.19951828	     -0.75747491	      0.23819166	     -0.37873746	      9.56939564	     -9.96950963	    -26.31854131	     -3.26618082	     34.51315449	      7.74809933	     45.09600989	    -15.73346997	     44.10309292	      2.15899055	     23.04872701	     18.99272085	     47.98546350	     -7.97735787	     22.13602587	     24.50997549	     44.71164656	    -13.22091752	     32.60706038	      5.37571575	      0.00088022	     -0.03099658	     -0.00484710	      0.01654474	     -0.01825039	     -0.00680725	      0.00415302	     -0.06709654	     -0.00375347	      0.00838723	     -0.18336572	     -0.00041539	     -0.00551690	      0.00162878	      0.00009386	      0.00029450	      0.00011780	      0.00058900	      0.00037696	      0.00113088	      0.00063612	      0.00003323	     -0.00018836	     -0.00022603	      0.00252307	      0.00885214	      0.00615801	     -0.00825344	      0.01992800	     -0.01890166	      0.00252307	      0.00885214	      0.00615801	      0.00055593	      0.01847402	     -0.00970741	      0.00397841	      0.00492256	      0.01604164	      0.00000000	      0.00792527	      0.00000000	     -0.00722711	     -0.03339864	     -0.00653556	      0.01365282	     -0.00042539	     -0.00322445	     -0.00089804	      0.01505291	     -0.00615801	      0.00248031	      0.02172408	     -0.01796085	     -0.00602972	      0.01304300	     -0.00551655	     -0.01257260	      0.02753998	     -0.03083280	     -0.02360569	      0.01458250	     -0.00739816	     -0.01565160	      0.03181637	     -0.03853031
      0.86666667	     -0.32436240	      0.13738460	     -0.13738460	      0.32436240	     -0.06567679	      0.53077670	      0.23858047	     -0.23858047	     -0.53077670	      0.06567679	     98.24187796	     76.79568178	     -1.71464423	    -20.56658866	     29.88915958	     47.13060532	      0.20795001	     -0.72008890	      0.24682326	     -0.36004445	      9.08565109	    -10.16098484	    -24.52087636	     -5.71162509	     34.02675665	      7.95644731	     46.20244400	    -15.33855207	     44.46538239	      2.16859109	     21.88680591	     19.54210484	     47.88459553	     -7.80145703	     21.41520951	     26.36904984	     44.05068257	    -13.18045292	     33.62244356	      5.32379624	      0.00088864	     -0.03102575	     -0.00485180	      0.01652957	     -0.01831954	     -0.00667318	      0.00406758	     -0.06715179	     -0.00384662	      0.00850598	     -0.18333951	     -0.00041789	     -0.00565566	      0.00167815	      0.00008145	      0.00030252	      0.00012101	      0.00060504	      0.00038723	      0.00116168	      0.00065344	      0.00003381	     -0.00018129	     -0.00021754	      0.00251719	      0.00883151	      0.00614366	     -0.00823421	      0.01988157	     -0.01885762	      0.00251719	      0.00883151	      0.00614366	      0.00055464	      0.01843098	     -0.00968480	      0.00397167	      0.00491109	      0.01602535	      0.00000000	      0.00788812	      0.00000000	     -0.00721027	     -0.03332082	     -0.00650472	      0.01410106	     -0.00044940	     -0.00349739	     -0.00089595	      0.01501783	     -0.00614366	      0.00247453	      0.02167347	     -0.01791901	     -0.00601567	      0.01301261	     -0.00550370	     -0.01254331	      0.02747581	     -0.03076096	     -0.02355070	      0.01454853	     -0.00738092	     -0.01561514	      0.03174224	     -0.03844054
      0.90000000	     -0.32433651	      0.13737364	     -0.13737364	      0.32433651	     -0.06567155	      0.53073433	      0.23856143	     -0.23856143	     -0.53073433	      0.06567155	     98.23424376	     76.78955149	     -1.71451099	    -20.56687319	     29.88306971	     47.13090744	      0.20793770	     -0.72007760	      0.24681005	     -0.36003880	      9.08559381	    -10.16144684	    -24.52110571	     -5.71144521	     34.02881530	      7.95637100	     46.20273575	    -15.33836343	     44.46686507	      2.16843369	     21.88746410	     19.54222666	     47.88462480	     -7.80155988	     21.41530181	     26.36889322	     44.05037922	    -13.18046716	     33.62200713	      5.32381601	      0.00088844	     -0.03102506	     -0.00485169	      0.01652956	     -0.01831788	     -0.00667315	      0.00406756	     -0.06715180	     -0.00384665	      0.00850602	     -0.18333950	     -0.00041789	     -0.00565570	      0.00167817	      0.00008145	      0.00030251	      0.00012100	      0.00060502	      0.00038721	      0.00116164	      0.00065342	      0.00003381	     -0.00018128	     -0.00021754	      0.00251699	      0.00883081	      0.00614317	     -0.00823355	      0.01987998	     -0.01885612	      0.00251699	      0.00883081	      0.00614317	      0.00055459	      0.01842951	     -0.00968402	      0.00397144	      0.00491070	      0.01602479	      0.00000000	      0.00788685	      0.00000000	     -0.00720969	     -0.03331816	     -0.00650367	      0.01410122	     -0.00044941	     -0.00349750	     -0.00089588	      0.01501664	     -0.00614317	      0.00247433	      0.02167174	     -0.01791758	     -0.00601519	      0.01301157	     -0.00550326	     -0.01254230	      0.02747362	     -0.03075851	     -0.02354882	      0.01454737	     -0.00738034	     -0.01561389	      0.03173971	     -0.03843747
      0.93333333	     -0.32382278	      0.13715605	     -0.13715605	      0.32382278	     -0.06556753	      0.52989368	      0.23818356	     -0.23818356	     -0.52989368	      0.06556753	     98.33356136	     76.66792157	     -1.71624441	    -21.16779089	     29.98396340	     48.06290474	      0.21326953	     -0.69972607	      0.25220814	     -0.34986303	      8.86294515	    -10.58374445	    -23.61518666	     -7.78404821	     33.99912077	      8.14160141	     47.43136143	    -15.06187995	     44.91209361	      2.17090929	     21.47915184	     20.15602582	     48.15871258	     -7.71618543	     20.54014021	     27.74028694	     43.81350396	    -13.16620199	     33.93044786	      5.34529036	      0.00089178	     -0.03103662	     -0.00485355	      0.01651513	     -0.01834529	     -0.00656374	      0.00399869	     -0.06719633	     -0.00392172	      0.00860203	     -0.18331811	     -0.00041918	     -0.00576754	      0.00171826	      0.00007093	      0.00030589	      0.00012236	      0.00061179	      0.00039154	      0.00117463	      0.00066073	      0.00003407	     -0.00017793	     -0.00021352	      0.00251301	      0.00881682	      0.00613344	     -0.00822051	      0.01984849	     -0.01882625	      0.00251301	      0.00881682	      0.00613344	      0.00055371	      0.01840032	     -0.00966868	      0.00396686	      0.00490292	      0.01601370	      0.00000000	      0.00786171	      0.00000000	     -0.00719827	     -0.03326539	     -0.00648280	      0.01444103	     -0.00046807	     -0.00371423	     -0.00089446	      0.01499285	     -0.00613344	      0.00247041	      0.02163741	     -0.01788920	     -0.00600566	      0.01299096	     -0.00549454	     -0.01252244	      0.02743010	     -0.03070979	     -0.02351152	      0.01452432	     -0.00736865	     -0.01558916	      0.03168943	     -0.03837659
      0.96666667	     -0.32378903	      0.13714175	     -0.13714175	      0.32378903	     -0.06556069	      0.52983846	      0.23815874	     -0.23815874	     -0.52983846	      0.06556069	     98.31547208	     76.65993144	     -1.71592869	    -21.17068622	     29.97327338	     48.06337009	      0.21326305	     -0.69971347	      0.25220135	     -0.34985674	      8.86179128	    -10.58418397	    -23.61597292	     -7.78386356	     34.00244234	      8.14130799	     47.43178394	    -15.06161597	     44.91432998	      2.17079684	     21.48018947	     20.15622053	     48.15997084	     -7.71622757	     20.54097864	     27.74016386	     43.81347405	    -13.16621265	     33.93004396	      5.34529497	      0.00089142	     -0.03103540	     -0.00485335	      0.01651510	     -0.01834239	     -0.00656367	      0.00399866	     -0.06719636	     -0.00392176	      0.00860208	     -0.18331810	     -0.00041918	     -0.00576759	      0.00171829	      0.00007091	      0.00030589	      0.00012236	      0.00061178	      0.00039154	      0.00117461	      0.00066072	      0.00003407	     -0.00017792	     -0.00021350	      0.00251274	      0.00881590	      0.00613280	     -0.00821966	      0.01984642	     -0.01882429	      0.00251274	      0.00881590	      0.00613280	      0.00055366	      0.01839840	     -0.00966768	      0.00396656	      0.00490241	      0.01601297	      0.00000000	      0.00786006	      0.00000000	     -0.00719752	     -0.03326192	     -0.00648143	      0.01444264	     -0.00046816	     -0.00371531	     -0.00089437	      0.01499129	     -0.00613280	      0.00247016	      0.02163515	     -0.01788733	     -0.00600503	      0.01298961	     -0.00549397	     -0.01252113	      0.02742724	     -0.03070659	     -0.02350907	      0.01452281	     -0.00736788	     -0.01558753	      0.03168613	     -0.03837259
